<?xml version="1.0" standalone="no"?>
<!DOCTYPE svg PUBLIC "-//W3C//DTD SVG 1.1//EN" "http://www.w3.org/Graphics/SVG/1.1/DTD/svg11.dtd" >
<svg xmlns="http://www.w3.org/2000/svg">
<metadata></metadata>
<defs>
<font id="benderblack_italic" horiz-adv-x="1024" >
<font-face units-per-em="2048" ascent="1638" descent="-410" />
<missing-glyph horiz-adv-x="675" />
<glyph horiz-adv-x="0" />
<glyph horiz-adv-x="682" />
<glyph unicode=" "  horiz-adv-x="675" />
<glyph unicode="&#x09;" horiz-adv-x="675" />
<glyph unicode="&#xa0;" horiz-adv-x="675" />
<glyph unicode="!" horiz-adv-x="593" d="M111 55l30 174l103 86h166l79 -86l-30 -174l-101 -86h-176zM197 430l163 1024h345l-197 -1024h-311z" />
<glyph unicode="&#x22;" horiz-adv-x="827" d="M217 799l80 655h291l-154 -655h-217zM631 799l80 655h290l-153 -655h-217z" />
<glyph unicode="#" horiz-adv-x="1638" d="M33 311l49 277h332l157 278h-219l49 277h328l178 311h310l-179 -311h246l178 311h310l-179 -311h226l-50 -277h-333l-158 -278h221l-49 -277h-330l-174 -311h-309l174 311h-246l-174 -311h-309l174 311h-223zM723 588h246l157 278h-245z" />
<glyph unicode="$" horiz-adv-x="1228" d="M57 100l148 285l241 -88h355l82 70l8 51l-17 55l-602 283l-59 162l49 276l307 260h140l24 143h285l-25 -143h115l276 -100l-145 -285l-244 88h-352l-82 -70l-8 -51l16 -55l605 -283l57 -161l-49 -277l-305 -260h-140l-26 -143h-285l27 143h-117z" />
<glyph unicode="%" horiz-adv-x="1712" d="M203 977l49 278l233 199h299l164 -199l-49 -278l-233 -199h-299zM209 135l1296 1370l211 -186l-1296 -1370zM463 1061l39 -47h110l56 47l18 110l-39 48h-110l-56 -48zM979 199l49 278l234 199h299l163 -199l-49 -278l-233 -199h-299zM1239 283l39 -47h111l55 47l18 110 l-39 47h-110l-56 -47z" />
<glyph unicode="&#x26;" horiz-adv-x="1335" d="M86 260l45 262l338 283l-119 166l39 223l309 260h439l215 -260l-43 -252h-318l29 170l-53 66h-197l-78 -66l-8 -53l358 -512l170 131l162 -223l-174 -133l119 -168l-258 -195l-117 164l-158 -123h-483zM418 342l53 -66h221l94 72l-170 246l-182 -154z" />
<glyph unicode="'" horiz-adv-x="413" d="M217 799l80 655h291l-154 -655h-217z" />
<glyph unicode="(" horiz-adv-x="647" d="M47 -74l221 1258l226 282l313 101l45 -279l-184 -59l-95 -121l-194 -1106l51 -121l164 -59l-143 -279l-279 101z" />
<glyph unicode=")" horiz-adv-x="647" d="M-51 -178l182 59l96 121l195 1106l-53 121l-164 59l143 279l281 -101l123 -282l-222 -1258l-223 -282l-315 -101z" />
<glyph unicode="*" horiz-adv-x="917" d="M209 956l205 109l-166 109l149 198l152 -98l33 180h225l-33 -180l189 98l79 -198l-206 -109l168 -109l-150 -198l-154 98l-30 -180h-226l31 180l-186 -98z" />
<glyph unicode="+" horiz-adv-x="1064" d="M119 567l49 277h344l61 344h295l-61 -344h344l-49 -277h-344l-60 -342h-295l60 342h-344z" />
<glyph unicode="," horiz-adv-x="450" d="M-84 -369l236 594h297l-320 -594h-213z" />
<glyph unicode="-" d="M119 567l49 277h942l-49 -277h-942z" />
<glyph unicode="." horiz-adv-x="471" d="M49 55l31 174l102 86h166l80 -86l-31 -174l-100 -86h-176z" />
<glyph unicode="/" horiz-adv-x="1181" d="M-2 106l1171 1410l230 -168l-1174 -1409z" />
<glyph unicode="0" horiz-adv-x="1341" d="M127 258l164 938l332 258h567l237 -258l-163 -938l-330 -258h-567zM469 520l528 658h-317l-111 -86zM557 276h317l111 86l100 572z" />
<glyph unicode="1" horiz-adv-x="841" d="M111 0l47 276h186l115 650l39 71l-4 4l-56 -71l-67 -58l-181 218l431 364h249l-208 -1178h186l-47 -276h-690z" />
<glyph unicode="2" horiz-adv-x="1220" d="M43 0l76 438l762 387l102 99l27 151l-68 82h-371l-274 -82l-39 283l328 96h549l213 -262l-66 -369l-242 -227l-585 -299h735l-51 -297h-1096z" />
<glyph unicode="3" horiz-adv-x="1220" d="M16 100l148 285l242 -88h387l94 82l22 123l-65 82h-430l45 258l383 293l80 43l-4 6l-76 -27h-594l53 297h1094l-45 -250l-424 -321l-78 -43l2 -6l78 26h100l215 -260l-59 -340l-307 -260h-582z" />
<glyph unicode="4" horiz-adv-x="1261" d="M47 268l49 289l969 897h262l-158 -889h150l-51 -297h-150l-47 -268h-317l47 268h-754zM449 545l4 -6l75 26h324l63 357l39 71l-6 4l-55 -71l-365 -338z" />
<glyph unicode="5" horiz-adv-x="1243" d="M78 102l145 283l248 -88h340l98 82l29 160l-70 82h-663l147 833h1045l-54 -297h-727l-43 -239h486l217 -261l-70 -397l-307 -260h-530z" />
<glyph unicode="6" horiz-adv-x="1292" d="M127 262l164 930l307 262h573l277 -98l-143 -283l-238 84h-383l-96 -82l-33 -182l135 29h410l213 -263l-70 -397l-305 -262h-596zM465 379l67 -82h318l96 82l29 164l-68 82h-321l-80 -19z" />
<glyph unicode="7" horiz-adv-x="1136" d="M203 1157l53 297h1075l-63 -360l-576 -758l-57 -336h-318l72 414l563 743h-749z" />
<glyph unicode="8" horiz-adv-x="1327" d="M127 260l66 369l172 119l-121 112l65 375l307 260h578l217 -260l-65 -375l-162 -112l131 -119l-66 -369l-307 -260h-598zM465 381l70 -84h319l98 84l25 133l-92 84h-275l-121 -84zM580 965q13 -12 37.5 -34.5t37.5 -35.5h291q72 51 101 70l26 151l-67 82h-304l-96 -82z " />
<glyph unicode="9" horiz-adv-x="1292" d="M57 98l144 283l237 -84h383l97 82l32 182l-135 -29h-409l-213 263l69 397l307 262h596l213 -262l-164 -930l-305 -262h-573zM530 911l68 -82h322l79 19l41 227l-67 82h-318l-96 -82z" />
<glyph unicode=":" horiz-adv-x="471" d="M49 55l31 174l102 86h166l80 -86l-31 -174l-100 -86h-176zM168 723l31 174l100 86h166l82 -86l-31 -174l-102 -86h-176z" />
<glyph unicode=";" horiz-adv-x="485" d="M-84 -369l236 594h297l-320 -594h-213zM182 723l31 174l100 86h166l82 -86l-31 -174l-102 -86h-176z" />
<glyph unicode="&#x3c;" horiz-adv-x="796" d="M100 457l29 164l619 477l161 -226l-434 -333l316 -334l-240 -225z" />
<glyph unicode="=" d="M84 362l45 256h942l-45 -256h-942zM160 795l45 256h942l-45 -256h-942z" />
<glyph unicode="&#x3e;" horiz-adv-x="796" d="M35 205l434 334l-315 333l239 226l451 -477l-29 -164l-618 -477z" />
<glyph unicode="?" horiz-adv-x="1202" d="M186 1178l328 276h602l213 -260l-65 -375l-449 -262l-20 -127h-318l45 256l447 262l22 129l-65 80h-326l-235 -199zM395 55l31 174l102 86h166l80 -86l-31 -174l-100 -86h-176z" />
<glyph unicode="@" horiz-adv-x="1943" d="M113 66l192 1089l381 299h1043l274 -299l-148 -836l-260 -219h-389l-8 154l-135 -129h-330l-166 199l37 206l236 199h381l16 92l-31 39h-213l-250 -80l-36 224l288 92h346l183 -219l-72 -406l6 -115h66l49 41l113 647l-121 134h-813l-170 -134l-152 -868l121 -133h983 l-49 -276h-1098zM856 391l43 -51h162l110 106l13 68h-254l-62 -51z" />
<glyph unicode="A" horiz-adv-x="1269" d="M-10 59l735 1436h303l232 -1436l-318 -100l-53 326h-461l-158 -326zM567 561h291l-55 340v152h-8l-54 -152z" />
<glyph unicode="B" horiz-adv-x="1320" d="M102 0l256 1454h852l183 -221l-70 -389l-123 -86l131 -119l-67 -377l-308 -262h-854zM471 297h403l93 78l26 149l-94 84h-373zM578 905h383l63 43l29 158l-43 51h-387z" />
<glyph unicode="C" horiz-adv-x="1267" d="M127 262l164 930l309 262h592l215 -262l-47 -270h-318l27 153l-68 82h-317l-96 -82l-123 -696l67 -82h332l232 197l178 -218l-324 -276h-606z" />
<glyph unicode="D" horiz-adv-x="1343" d="M102 0l256 1454h856l216 -264l-164 -926l-308 -264h-856zM471 297h401l97 82l123 696l-68 82h-401z" />
<glyph unicode="E" horiz-adv-x="1173" d="M102 0l256 1454h1010l-53 -297h-692l-43 -250h606l-53 -297h-607l-55 -313h692l-51 -297h-1010z" />
<glyph unicode="F" horiz-adv-x="1173" d="M102 0l256 1454h1010l-53 -297h-692l-54 -307h607l-54 -297h-606l-96 -553h-318z" />
<glyph unicode="G" horiz-adv-x="1320" d="M127 262l164 930l309 262h592l215 -262l-47 -270h-318l27 153l-68 82h-317l-96 -82l-123 -696l67 -82h318q53 44 96 82l29 166h-313l45 256h630l-94 -541l-305 -260h-594z" />
<glyph unicode="H" horiz-adv-x="1361" d="M102 0l256 1454h318l-101 -569h482l100 569h318l-256 -1454h-318l103 588h-482l-102 -588h-318z" />
<glyph unicode="I" horiz-adv-x="833" d="M41 0l47 276h197l159 902h-196l49 276h711l-50 -276h-196l-160 -902h197l-47 -276h-711z" />
<glyph unicode="J" horiz-adv-x="1159" d="M29 289l254 217l174 -209h231l96 82l138 778h-283l53 297h600l-211 -1192l-307 -262h-504z" />
<glyph unicode="K" horiz-adv-x="1216" d="M102 0l256 1454h318l-98 -559l645 600l196 -209l-526 -489l324 -666l-289 -172l-297 608l-133 -125l-78 -442h-318z" />
<glyph unicode="L" horiz-adv-x="1132" d="M102 0l256 1454h318l-205 -1157h672l-51 -297h-990z" />
<glyph unicode="M" horiz-adv-x="1744" d="M102 0l256 1454h293l305 -698l11 -78h8l39 78l551 698h293l-256 -1454h-318l135 774l47 137h-8l-78 -135l-366 -465h-217l-203 465l-29 135h-8l-2 -137l-135 -774h-318z" />
<glyph unicode="N" horiz-adv-x="1363" d="M102 0l256 1454h285l342 -764l29 -135h8l2 137l135 762h318l-256 -1454h-285l-344 764l-29 135h-8l-2 -137l-133 -762h-318z" />
<glyph unicode="O" horiz-adv-x="1382" d="M127 258l164 938l332 258h608l237 -258l-163 -938l-330 -258h-608zM465 383l80 -86h354l109 86l122 688l-79 86h-355l-108 -86z" />
<glyph unicode="P" horiz-adv-x="1300" d="M102 0l256 1454h854l215 -260l-81 -469l-308 -260h-536l-82 -465h-318zM553 762h399l97 82l41 231l-68 82h-399z" />
<glyph unicode="Q" horiz-adv-x="1382" d="M127 258l164 938l332 258h608l237 -258l-163 -938l-330 -258h-146l-51 -283h-307l51 283h-155zM465 383l80 -86h28l23 123h297l-23 -123h29l109 86l122 688l-79 86h-355l-108 -86z" />
<glyph unicode="R" horiz-adv-x="1312" d="M102 0l256 1454h889l187 -225l-82 -463l-267 -225h-73l-66 34l-4 -6l62 -51l276 -346l-266 -223l-473 592h-27l-94 -541h-318zM567 838h408l86 75l31 168l-62 76h-407z" />
<glyph unicode="S" horiz-adv-x="1228" d="M57 100l148 285l241 -88h355l82 70l8 51l-17 55l-602 283l-59 162l49 276l307 260h539l276 -100l-145 -285l-244 88h-352l-82 -70l-8 -51l16 -55l605 -283l57 -161l-49 -277l-305 -260h-541z" />
<glyph unicode="T" horiz-adv-x="1157" d="M203 1157l53 297h1116l-53 -297h-399l-203 -1157h-318l203 1157h-399z" />
<glyph unicode="U" horiz-adv-x="1320" d="M127 260l211 1194h317l-190 -1075l67 -82h318l96 82l191 1075h317l-211 -1194l-307 -260h-592z" />
<glyph unicode="V" horiz-adv-x="1241" d="M225 1397l310 98l139 -895v-151h8l53 151l455 895l276 -98l-708 -1397h-316z" />
<glyph unicode="W" horiz-adv-x="1875" d="M225 1405l314 90l92 -764v-141h8l53 141l328 660h283l94 -660l4 -141h8l49 141l363 764l280 -90l-665 -1405h-242l-113 774v141h-8l-49 -141l-383 -774h-242z" />
<glyph unicode="X" horiz-adv-x="1241" d="M12 139l520 584l-303 596l303 186l226 -444l10 -78h8l39 78l381 444l238 -186l-512 -596l311 -584l-301 -190l-236 440l-10 78h-8l-39 -78l-391 -440z" />
<glyph unicode="Y" horiz-adv-x="1236" d="M219 1362l309 143l199 -604v-141h8l49 141l412 604l260 -143l-622 -911l-78 -451h-318l80 455z" />
<glyph unicode="Z" horiz-adv-x="1198" d="M31 0l39 231l811 904l82 51l-5 6l-77 -35h-631l53 297h1079l-43 -235l-809 -900l-79 -51l2 -6l77 35h631l-51 -297h-1079z" />
<glyph unicode="[" horiz-adv-x="612" d="M-4 -365l323 1840h531l-47 -277h-213l-228 -1286h213l-49 -277h-530z" />
<glyph unicode="\" horiz-adv-x="1181" d="M217 1348l287 168l676 -1410l-289 -167z" />
<glyph unicode="]" horiz-adv-x="612" d="M-84 -365l49 277h211l227 1286h-213l48 277h530l-324 -1840h-528z" />
<glyph unicode="^" horiz-adv-x="1142" d="M131 868l559 586h234l350 -586l-275 -188l-254 424l-405 -424z" />
<glyph unicode="_" horiz-adv-x="1036" d="M-72 -297l52 297h1036l-53 -297h-1035z" />
<glyph unicode="`" horiz-adv-x="573" d="M215 1454h326l204 -471h-286z" />
<glyph unicode="a" horiz-adv-x="1185" d="M78 219l119 674l260 219h547l182 -219l-96 -547l18 -319l-262 -58l-8 160l-136 -129h-440zM416 336l33 -39h223l110 106l66 373l-31 39h-276l-47 -39z" />
<glyph unicode="b" horiz-adv-x="1230" d="M152 178l170 967l-37 244l317 98l45 -299l-26 -152l114 76h346l183 -219l-125 -715l-260 -219h-545zM489 295l33 -39h275l45 39l84 481l-31 39h-211l-117 -76z" />
<glyph unicode="c" horiz-adv-x="1134" d="M119 219l119 674l260 219h544l183 -219l-39 -227h-318l19 110l-31 39h-274l-47 -39l-78 -440l32 -39h310l270 82l41 -283l-324 -96h-483z" />
<glyph unicode="d" horiz-adv-x="1224" d="M119 219l119 674l260 219h346l90 -76l74 418h317l-197 -1108l19 -319l-262 -58l-8 160l-136 -129h-438zM457 336l32 -39h222l110 106l60 336l-88 76h-211l-47 -39z" />
<glyph unicode="e" horiz-adv-x="1165" d="M119 219l119 674l260 219h544l183 -219l-49 -285l-236 -198h-469l-16 -95l30 -39h306l270 82l39 -264l-318 -94h-479zM516 666h324l32 28l23 123l-33 39h-274l-45 -39z" />
<glyph unicode="f" horiz-adv-x="917" d="M76 -276l123 243l120 695h-184l53 296h185l49 277l258 219h289l288 -96l-137 -281l-241 80h-105l-57 -49l-27 -150h277l-54 -296h-276l-129 -738l-152 -299z" />
<glyph unicode="g" horiz-adv-x="1191" d="M37 -248l139 283l242 -82h284l48 39l28 166l-114 -76h-347l-184 219l113 633l260 219h545l182 -219l-186 -1059l-261 -219h-458zM471 418l33 -39h211l116 76l64 362l-33 39h-274l-45 -39z" />
<glyph unicode="h" horiz-adv-x="1230" d="M121 0l201 1145l-37 244l317 98l45 -299l-26 -152l114 76h346l183 -219l-156 -893h-317l135 776l-31 39h-211l-117 -76l-129 -739h-317z" />
<glyph unicode="i" horiz-adv-x="567" d="M121 0l137 780l-37 244l316 98l45 -299l-144 -823h-317zM342 1284l27 154l102 86h145l80 -86l-26 -154l-101 -86h-155z" />
<glyph unicode="j" horiz-adv-x="624" d="M-160 -104l287 96l61 67l127 721l-36 244l315 98l45 -299l-150 -858l-200 -221l-400 -133zM399 1284l27 154l102 86h146l80 -86l-27 -154l-100 -86h-156z" />
<glyph unicode="k" horiz-adv-x="1095" d="M121 0l201 1145l-37 244l317 98l45 -299l-80 -451l494 416l178 -221l-414 -348l277 -426l-275 -199l-268 412l-65 -56l-56 -315h-317z" />
<glyph unicode="l" horiz-adv-x="561" d="M121 0l201 1145l-37 244l317 98l45 -299l-209 -1188h-317z" />
<glyph unicode="m" horiz-adv-x="1779" d="M115 0l133 766l-17 319l263 58l8 -160l135 129h348l78 -104l115 104h452l182 -219l-155 -893h-318l136 776l-31 39h-201l-65 -59l-134 -756h-317l133 756l-45 59h-147l-111 -106l-125 -709h-317z" />
<glyph unicode="n" horiz-adv-x="1226" d="M115 0l133 766l-17 319l263 58l8 -160l135 129h440l183 -219l-156 -893h-318l136 776l-31 39h-223l-111 -106l-125 -709h-317z" />
<glyph unicode="o" horiz-adv-x="1202" d="M121 221l117 670l258 221h559l180 -221l-117 -670l-258 -221h-559zM457 336l32 -39h285l45 39l78 440l-31 39h-284l-47 -39z" />
<glyph unicode="p" horiz-adv-x="1224" d="M53 -344l195 1110l-17 319l263 58l8 -160l135 129h438l182 -219l-118 -674l-258 -219h-346l-91 76l-73 -420h-318zM498 373l88 -76h211l45 39l78 440l-31 39h-221l-111 -106z" />
<glyph unicode="q" horiz-adv-x="1210" d="M119 219l127 715l260 219h545l182 -219l-170 -967l37 -243l-318 -99l-45 299l27 152l-115 -76h-346zM457 336l32 -39h211l117 76l78 444l-33 39h-274l-45 -39z" />
<glyph unicode="r" horiz-adv-x="1064" d="M115 0l133 766l-17 319l263 58l8 -160l135 129h385l197 -233l-248 -215l-129 151h-174l-111 -106l-125 -709h-317z" />
<glyph unicode="s" horiz-adv-x="1075" d="M37 98l135 267l250 -89h262l49 41l4 31l-10 25l-510 129l-65 151l41 240l258 219h460l281 -98l-135 -266l-252 88h-264l-47 -41l-7 -29l15 -23l508 -129l65 -151l-43 -244l-256 -219h-459z" />
<glyph unicode="t" horiz-adv-x="1060" d="M176 774l53 297h185l55 322h317l-55 -322h277l-54 -297h-276l-76 -428l41 -49h107q142 42 268 80l39 -281l-324 -96h-289l-182 219l98 555h-184z" />
<glyph unicode="u" horiz-adv-x="1226" d="M119 219l157 893h318l-137 -776l32 -39h224l110 106l125 709h318l-136 -766l19 -319l-262 -58l-8 160l-136 -129h-440z" />
<glyph unicode="v" horiz-adv-x="1105" d="M162 1038l305 115l133 -586v-151h8l54 151l342 586l264 -115l-604 -1038h-263z" />
<glyph unicode="w" horiz-adv-x="1548" d="M166 1063l297 90l63 -487v-142h9l53 142l215 393h274l76 -393l4 -142h8l49 142l236 487l264 -90l-516 -1063h-219l-107 522l2 142h-8l-51 -142l-287 -522h-219z" />
<glyph unicode="x" horiz-adv-x="1064" d="M14 143l404 412l-258 414l278 194l195 -313l10 -78h8l39 78l305 313l209 -194l-405 -414l260 -412l-279 -196l-194 309l-13 78h-8l-37 -78l-305 -309z" />
<glyph unicode="y" horiz-adv-x="1124" d="M88 -344l51 297h252l41 35l23 45h-52l-243 999l309 121l156 -643l2 -141h8l51 141l330 643l272 -96l-629 -1237l-192 -164h-379z" />
<glyph unicode="z" horiz-adv-x="1036" d="M20 0l41 240l601 573l79 51l-4 6l-78 -34h-485l49 276h946l-43 -242l-598 -571l-79 -51l2 -6l77 34h486l-47 -276h-947z" />
<glyph unicode="{" horiz-adv-x="790" d="M104 487l25 136l205 137l78 440l217 270l348 76l14 -286l-203 -46l-73 -90l-82 -462l-158 -107l121 -106l-82 -463l43 -90l186 -46l-116 -286l-322 76l-121 270l78 440z" />
<glyph unicode="|" horiz-adv-x="565" d="M41 -344l317 1798h320l-318 -1798h-319z" />
<glyph unicode="}" horiz-adv-x="790" d="M-45 -150l201 46l71 90l82 463l158 106l-121 107l82 462l-41 90l-186 46l116 286l320 -76l123 -270l-78 -440l156 -137l-25 -136l-203 -137l-78 -440l-219 -270l-344 -76z" />
<glyph unicode="~" horiz-adv-x="1366" d="M145 715l254 217l174 -209h17l307 262h289l239 -289l-251 -217l-175 209h-16l-309 -262h-289z" />
<glyph unicode="&#xa2;" horiz-adv-x="1134" d="M119 219l119 674l260 219h127l26 143h285l-27 -143h133l183 -219l-39 -227h-318l19 110l-31 39h-274l-47 -39l-78 -440l32 -39h310l270 82l41 -283l-324 -96h-71l-27 -143h-285l27 143h-127z" />
<glyph unicode="&#xa5;" horiz-adv-x="1236" d="M162 205l37 205h311l8 45l-12 37h-293l35 204h188l-217 666l309 143l199 -604v-141h8l49 141l412 604l260 -143l-457 -666h189l-35 -204h-291l-28 -41l-7 -41h312l-37 -205h-311l-35 -205h-318l35 205h-311z" />
<glyph unicode="&#xa9;" horiz-adv-x="1841" d="M133 299l152 856l381 299h981l274 -299l-152 -856l-378 -299h-981zM451 410l120 -134h752l170 134l111 634l-121 134h-752l-170 -134zM608 549l62 356l223 191h399l154 -191l-27 -153h-256l13 65l-35 43h-178l-52 -43l-32 -180l36 -43h215l213 63l33 -227l-241 -72h-373z " />
<glyph unicode="&#xab;" horiz-adv-x="1548" d="M115 539l735 567l162 -225l-443 -342l322 -342l-242 -226zM764 539l735 567l162 -225l-442 -342l321 -342l-242 -226z" />
<glyph unicode="&#xad;" d="M119 567l49 277h942l-49 -277h-942z" />
<glyph unicode="&#xae;" horiz-adv-x="1841" d="M133 299l152 856l381 299h981l274 -299l-152 -856l-378 -299h-981zM451 410l120 -134h752l170 134l111 634l-121 134h-752l-170 -134zM573 358l132 738h688l90 -107l-56 -305l-127 -106h-45l-65 34l-4 -6l61 -51l142 -160l-50 -37h-249l-189 220h-33l-39 -220h-256z M905 782h254l37 31l8 47l-26 31h-254z" />
<glyph unicode="&#xbb;" horiz-adv-x="1548" d="M33 197l444 342l-323 342l243 225l535 -567l-735 -568zM682 197l444 342l-323 342l244 225l534 -567l-735 -568z" />
<glyph unicode="&#x401;" horiz-adv-x="1173" d="M102 0l256 1454h1010l-53 -297h-692l-43 -250h606l-53 -297h-607l-55 -313h692l-51 -297h-1010zM528 1655l27 153l102 86h146l80 -86l-27 -153l-100 -86h-156zM958 1655l27 153l102 86h146l80 -86l-27 -153l-100 -86h-156z" />
<glyph unicode="&#x402;" horiz-adv-x="1437" d="M182 1157l54 297h808l-53 -297h-246l-43 -244l136 29h444l180 -221l-94 -528l-199 -222l-348 -114l-49 284l234 78l61 68l57 323l-28 35h-363l-82 -18l-108 -627h-318l203 1157h-246z" />
<glyph unicode="&#x403;" horiz-adv-x="1130" d="M102 0l256 1454h988l-54 -297h-669l-203 -1157h-318zM715 1567l266 348h297l-307 -348h-256z" />
<glyph unicode="&#x404;" horiz-adv-x="1267" d="M127 262l164 930l309 262h592l215 -262l-47 -270h-318l27 153l-68 82h-317l-96 -82l-41 -227h459l-48 -277h-458l-35 -192l67 -82h332l232 197l178 -218l-324 -276h-606z" />
<glyph unicode="&#x405;" horiz-adv-x="1228" d="M57 100l148 285l241 -88h355l82 70l8 51l-17 55l-602 283l-59 162l49 276l307 260h539l276 -100l-145 -285l-244 88h-352l-82 -70l-8 -51l16 -55l605 -283l57 -161l-49 -277l-305 -260h-541z" />
<glyph unicode="&#x406;" horiz-adv-x="833" d="M41 0l47 276h197l159 902h-196l49 276h711l-50 -276h-196l-160 -902h197l-47 -276h-711z" />
<glyph unicode="&#x407;" horiz-adv-x="833" d="M41 0l47 276h197l159 902h-196l49 276h711l-50 -276h-196l-160 -902h197l-47 -276h-711zM307 1655l27 153l102 86h146l80 -86l-27 -153l-100 -86h-156zM737 1655l27 153l102 86h146l80 -86l-27 -153l-100 -86h-156z" />
<glyph unicode="&#x408;" horiz-adv-x="1159" d="M29 289l254 217l174 -209h231l96 82l138 778h-283l53 297h600l-211 -1192l-307 -262h-504z" />
<glyph unicode="&#x409;" horiz-adv-x="2078" d="M20 242l203 65l72 62l317 1085h906l-86 -487h475l213 -265l-78 -438l-305 -264h-793l203 1157h-301l-266 -919l-209 -181l-303 -98zM1313 297h336l96 84l37 205l-68 84h-336z" />
<glyph unicode="&#x40a;" horiz-adv-x="1974" d="M102 0l256 1454h318l-92 -518h420l92 518h317l-92 -518h475l213 -264l-72 -408l-305 -264h-792l112 639h-420l-112 -639h-318zM1208 297h336l96 84l31 174l-65 84h-336z" />
<glyph unicode="&#x40b;" horiz-adv-x="1437" d="M182 1157l54 297h808l-53 -297h-246l-43 -244l136 29h444l180 -221l-127 -721h-317l106 610l-28 35h-363l-82 -18l-108 -627h-318l203 1157h-246z" />
<glyph unicode="&#x40c;" horiz-adv-x="1269" d="M102 0l256 1454h320l-100 -569h108l385 512l330 98l41 -287l-187 -55l-321 -426l180 -426l168 -55l-141 -287l-297 98l-226 531h-94l-102 -588h-320zM733 1495l266 348h297l-307 -348h-256z" />
<glyph unicode="&#x40e;" horiz-adv-x="1259" d="M215 0l51 297h226l43 35l28 45l-344 983l297 145l240 -680l2 -141h8l51 141l397 680l269 -119l-713 -1214l-209 -172h-346zM512 1714l45 254h277l-23 -125l31 -37h184l43 37l23 125h276l-45 -254l-207 -174h-459z" />
<glyph unicode="&#x40f;" horiz-adv-x="1359" d="M102 0l256 1454h318l-205 -1157h479l205 1157h318l-256 -1454h-398l-61 -344h-318l62 344h-400z" />
<glyph unicode="&#x410;" horiz-adv-x="1269" d="M-10 59l737 1436h299l234 -1436l-318 -100l-53 326h-461l-158 -326zM567 561h291l-55 340v152h-8l-54 -152z" />
<glyph unicode="&#x411;" horiz-adv-x="1320" d="M102 0l256 1454h1031l-54 -297h-712l-43 -242h538l215 -264l-69 -387l-306 -264h-856zM471 297h397l99 84l28 154l-69 83h-398z" />
<glyph unicode="&#x412;" horiz-adv-x="1320" d="M102 0l256 1454h852l183 -221l-70 -389l-123 -86l131 -119l-67 -377l-308 -262h-854zM471 297h403l93 78l26 149l-94 84h-373zM578 905h383l63 43l29 158l-43 51h-387z" />
<glyph unicode="&#x413;" horiz-adv-x="1130" d="M102 0l256 1454h988l-54 -297h-669l-203 -1157h-318z" />
<glyph unicode="&#x414;" horiz-adv-x="1466" d="M-80 -344l111 641h149l103 174l295 983h933l-204 -1157h149l-113 -641h-317l61 344h-790l-61 -344h-316zM516 297h473l152 860h-334l-221 -741z" />
<glyph unicode="&#x415;" horiz-adv-x="1173" d="M102 0l256 1454h1010l-53 -297h-692l-43 -250h606l-53 -297h-607l-55 -313h692l-51 -297h-1010z" />
<glyph unicode="&#x416;" horiz-adv-x="1902" d="M33 246l184 55l332 426l-170 426l-166 55l139 287l297 -98l205 -512h74l100 569h318l-101 -569h74l385 512l330 98l41 -287l-187 -55l-321 -426l180 -426l168 -55l-141 -287l-297 98l-226 531h-59l-102 -588h-318l102 588h-59l-414 -531l-329 -98z" />
<glyph unicode="&#x417;" horiz-adv-x="1232" d="M16 100l142 281l241 -84h383l97 82l22 123l-92 84h-377l51 297h387l95 65l24 139l-59 70h-367l-270 -84l-43 281l323 100h551l203 -248l-63 -362l-156 -109l131 -119l-63 -356l-306 -260h-565z" />
<glyph unicode="&#x418;" horiz-adv-x="1363" d="M102 0l256 1454h318l-141 -797l-48 -137h9l77 135l617 799h287l-256 -1454h-318l139 797l48 137h-9l-77 -135l-615 -799h-287z" />
<glyph unicode="&#x419;" horiz-adv-x="1363" d="M102 0l256 1454h318l-141 -797l-48 -137h9l77 135l617 799h287l-256 -1454h-318l139 797l48 137h-9l-77 -135l-615 -799h-287zM561 1741l45 254h277l-23 -125l31 -37h184l43 37l23 125h276l-45 -254l-207 -174h-458z" />
<glyph unicode="&#x41a;" horiz-adv-x="1269" d="M102 0l256 1454h320l-100 -569h108l385 512l330 98l41 -287l-187 -55l-321 -426l180 -426l168 -55l-141 -287l-297 98l-226 531h-94l-102 -588h-320z" />
<glyph unicode="&#x41b;" horiz-adv-x="1466" d="M20 242l203 65l72 62l317 1085h967l-256 -1454h-317l202 1157h-362l-266 -919l-209 -181l-303 -98z" />
<glyph unicode="&#x41c;" horiz-adv-x="1744" d="M102 0l256 1454h293l305 -698l11 -78h8l39 78l551 698h293l-256 -1454h-318l135 774l47 137h-8l-78 -135l-366 -465h-217l-203 465l-29 135h-8l-2 -137l-135 -774h-318z" />
<glyph unicode="&#x41d;" horiz-adv-x="1361" d="M102 0l256 1454h318l-101 -569h482l100 569h318l-256 -1454h-318l103 588h-482l-102 -588h-318z" />
<glyph unicode="&#x41e;" horiz-adv-x="1382" d="M127 258l164 938l332 258h608l237 -258l-163 -938l-330 -258h-608zM465 383l80 -86h354l109 86l122 688l-79 86h-355l-108 -86z" />
<glyph unicode="&#x41f;" horiz-adv-x="1361" d="M102 0l256 1454h1117l-256 -1454h-318l203 1157h-481l-203 -1157h-318z" />
<glyph unicode="&#x420;" horiz-adv-x="1300" d="M102 0l256 1454h854l215 -260l-81 -469l-308 -260h-536l-82 -465h-318zM553 762h399l97 82l41 231l-68 82h-399z" />
<glyph unicode="&#x421;" horiz-adv-x="1267" d="M127 262l164 930l309 262h592l215 -262l-47 -270h-318l27 153l-68 82h-317l-96 -82l-123 -696l67 -82h332l232 197l178 -218l-324 -276h-606z" />
<glyph unicode="&#x422;" horiz-adv-x="1157" d="M203 1157l53 297h1116l-53 -297h-399l-203 -1157h-318l203 1157h-399z" />
<glyph unicode="&#x423;" horiz-adv-x="1259" d="M215 0l51 297h226l43 35l28 45l-344 983l297 145l240 -680l2 -141h8l51 141l397 680l269 -119l-713 -1214l-209 -172h-346z" />
<glyph unicode="&#x424;" horiz-adv-x="1710" d="M131 406l125 704l309 262h353l36 215h318l-37 -215h352l215 -262l-125 -704l-307 -263h-352l-35 -194h-317l34 194h-352zM467 502l68 -82h215l118 676h-215l-96 -82zM1067 420h215l96 82l90 512l-67 82h-215z" />
<glyph unicode="&#x425;" horiz-adv-x="1241" d="M12 139l520 584l-303 596l303 186l226 -444l10 -78h8l39 78l381 444l238 -186l-512 -596l311 -584l-301 -190l-236 440l-10 78h-8l-39 -78l-391 -440z" />
<glyph unicode="&#x426;" horiz-adv-x="1449" d="M102 0l256 1454h318l-205 -1157h479l205 1157h318l-205 -1157h172l-113 -641h-317l61 344h-969z" />
<glyph unicode="&#x427;" horiz-adv-x="1314" d="M184 702l133 752h318l-113 -641l29 -35h362l80 19l117 657h317l-256 -1454h-317l88 510l-133 -29h-444z" />
<glyph unicode="&#x428;" horiz-adv-x="2103" d="M102 0l256 1454h316l-205 -1157h455l204 1157h318l-205 -1157h453l204 1157h318l-256 -1454h-1858z" />
<glyph unicode="&#x429;" horiz-adv-x="2134" d="M102 0l256 1454h318l-205 -1157h424l205 1157h317l-205 -1157h422l205 1157h318l-205 -1157h172l-113 -641h-317l61 344h-1653z" />
<glyph unicode="&#x42a;" horiz-adv-x="1509" d="M223 1157l53 297h611l-86 -487h536l213 -265l-77 -438l-306 -264h-854l203 1157h-293zM682 297h397l97 84l36 205l-67 84h-397z" />
<glyph unicode="&#x42b;" horiz-adv-x="1851" d="M102 0l256 1454h318l-86 -487h536l213 -265l-77 -438l-306 -264h-854zM471 297h397l97 84l36 205l-67 84h-397zM1391 0l256 1454h317l-256 -1454h-317z" />
<glyph unicode="&#x42c;" horiz-adv-x="1298" d="M102 0l256 1454h318l-86 -487h536l213 -265l-77 -438l-306 -264h-854zM471 297h397l97 84l36 205l-67 84h-397z" />
<glyph unicode="&#x42d;" horiz-adv-x="1267" d="M47 276l256 218l162 -197h332l96 82l35 192h-459l47 277h459l41 227l-68 82h-317l-96 -82l-27 -153h-318l48 270l309 262h592l215 -262l-164 -930l-307 -262h-607z" />
<glyph unicode="&#x42e;" horiz-adv-x="1861" d="M102 0l256 1454h318l-101 -569h175l53 311l332 258h575l238 -258l-164 -938l-330 -258h-575l-240 258l57 330h-174l-102 -588h-318zM977 381l78 -84h325l107 84l123 692l-78 84h-326l-106 -84z" />
<glyph unicode="&#x42f;" horiz-adv-x="1339" d="M80 231l186 56l199 207l80 51l-2 6l-78 -35h-68l-188 225l86 488l268 225h889l-256 -1454h-317l90 516h-82l-438 -459l-330 -98zM553 887l61 -74h408l59 344h-407l-86 -74z" />
<glyph unicode="&#x430;" horiz-adv-x="1185" d="M78 219l119 674l260 219h547l182 -219l-96 -547l18 -319l-262 -58l-8 160l-136 -129h-440zM416 336l33 -39h223l110 106l66 373l-31 39h-276l-47 -39z" />
<glyph unicode="&#x431;" horiz-adv-x="1198" d="M119 219l153 871l334 290l393 74l226 141l137 -258l-266 -166l-404 -75l-119 -103l-14 -82l115 76h358l182 -219l-98 -549l-256 -219h-559zM457 336l32 -39h285l45 39l58 315l-33 39h-221l-117 -76z" />
<glyph unicode="&#x432;" horiz-adv-x="1171" d="M113 184l131 744l217 184h583l152 -184l-51 -297l-98 -64l106 -88l-47 -262l-254 -217h-586zM451 295l32 -39h275l45 39l16 92l-63 53h-281zM520 696h275l49 31l16 90l-33 39h-239l-45 -39z" />
<glyph unicode="&#x433;" horiz-adv-x="1073" d="M74 219l43 244l119 151l557 129l18 23l6 29l-35 41h-252l-280 -88l-41 266l313 98h449l180 -219l-41 -240l-119 -151l-555 -129l-22 -25l-4 -31l32 -41h252l283 89l41 -267l-313 -98h-449z" />
<glyph unicode="&#x434;" horiz-adv-x="1202" d="M119 219l98 549l256 219h358l91 -76l28 164l-82 103h-235l-283 -88l-41 266l316 98h436l223 -283l-168 -952l-256 -219h-559zM457 336l32 -39h285l45 39l49 278l-88 76h-221l-45 -39z" />
<glyph unicode="&#x435;" horiz-adv-x="1165" d="M119 219l119 674l260 219h544l183 -219l-49 -285l-236 -198h-469l-16 -95l30 -39h306l270 82l39 -264l-318 -94h-479zM516 666h324l32 28l23 123l-33 39h-274l-45 -39z" />
<glyph unicode="&#x436;" horiz-adv-x="1636" d="M39 221l164 78l239 252l-141 256l-145 84l190 272l213 -123l199 -360l76 432h317l-76 -432l326 360l258 123l92 -272l-174 -84l-231 -256l149 -252l139 -78l-188 -272l-195 110l-221 367l-74 -426h-317l74 426l-348 -367l-236 -110z" />
<glyph unicode="&#x437;" horiz-adv-x="1120" d="M37 94l129 264l242 -82h301l47 39l10 64l-57 51h-355l45 256h344l76 47l12 74l-26 29h-295l-262 -84l-43 258l321 102h465l174 -211l-45 -260l-127 -82l107 -90l-45 -250l-256 -219h-477z" />
<glyph unicode="&#x438;" horiz-adv-x="1226" d="M119 219l157 893h318l-137 -776l32 -39h224l110 106l125 709h318l-136 -766l19 -319l-262 -58l-8 160l-136 -129h-440z" />
<glyph unicode="&#x439;" horiz-adv-x="1226" d="M119 219l157 893h318l-137 -776l32 -39h224l110 106l125 709h318l-136 -766l19 -319l-262 -58l-8 160l-136 -129h-440zM426 1419l37 215h276l-16 -92l27 -31h186l35 31l16 92h277l-37 -215l-185 -153h-489z" />
<glyph unicode="&#x43a;" horiz-adv-x="1101" d="M82 0l194 1112h318l-76 -432h23l325 360l258 123l93 -272l-175 -84l-231 -256l150 -252l139 -78l-189 -272l-194 110l-219 365h-25l-74 -424h-317z" />
<glyph unicode="&#x43b;" horiz-adv-x="1253" d="M20 242l164 55l80 70l223 745h838l-195 -1112h-317l143 815h-233l-180 -596l-187 -164l-284 -96z" />
<glyph unicode="&#x43c;" horiz-adv-x="1445" d="M82 0l194 1112h293l211 -498l13 -77h8l37 77l387 498h293l-195 -1112h-317l81 467l48 137h-9l-77 -135l-195 -250h-229l-105 250l-28 135h-9l-2 -137l-82 -467h-317z" />
<glyph unicode="&#x43d;" horiz-adv-x="1230" d="M121 0l141 811l-37 244l318 98l45 -299l-27 -154h352l72 412h318l-195 -1112h-317l69 403h-352l-70 -403h-317z" />
<glyph unicode="&#x43e;" horiz-adv-x="1202" d="M121 221l117 670l258 221h559l180 -221l-117 -670l-258 -221h-559zM457 336l32 -39h285l45 39l78 440l-31 39h-284l-47 -39z" />
<glyph unicode="&#x43f;" horiz-adv-x="1226" d="M115 0l133 766l-17 319l263 58l8 -160l135 129h440l183 -219l-156 -893h-318l136 776l-31 39h-223l-111 -106l-125 -709h-317z" />
<glyph unicode="&#x440;" horiz-adv-x="1224" d="M53 -344l195 1110l-17 319l263 58l8 -160l135 129h438l182 -219l-118 -674l-258 -219h-346l-91 76l-73 -420h-318zM498 373l88 -76h211l45 39l78 440l-31 39h-221l-111 -106z" />
<glyph unicode="&#x441;" horiz-adv-x="1134" d="M119 219l119 674l260 219h544l183 -219l-39 -227h-318l19 110l-31 39h-274l-47 -39l-78 -440l32 -39h310l270 82l41 -283l-324 -96h-483z" />
<glyph unicode="&#x442;" horiz-adv-x="1779" d="M115 0l133 766l-17 319l263 58l8 -160l135 129h348l78 -104l115 104h452l182 -219l-155 -893h-318l136 776l-31 39h-201l-65 -59l-134 -756h-317l133 756l-45 59h-147l-111 -106l-125 -709h-317z" />
<glyph unicode="&#x443;" horiz-adv-x="1124" d="M88 -344l51 297h252l41 35l23 45h-52l-243 999l309 121l156 -643l2 -141h8l51 141l330 643l272 -96l-629 -1237l-192 -164h-379z" />
<glyph unicode="&#x444;" horiz-adv-x="1546" d="M119 217l121 678l254 217h200l90 -27l19 111l151 299l283 -98l-123 -244l-12 -68l98 27h201l180 -217l-121 -678l-254 -217h-200l-91 27l-18 -103l-152 -299l-280 99l123 243l10 60l-98 -27h-201zM457 336l32 -39h134l34 8l88 502l-30 8h-133l-47 -39zM954 305l31 -8h133 l45 39l78 440l-31 39h-133l-35 -8z" />
<glyph unicode="&#x445;" horiz-adv-x="1064" d="M14 143l404 412l-258 414l278 194l195 -313l10 -78h8l39 78l305 313l209 -194l-405 -414l260 -412l-279 -196l-194 309l-13 78h-8l-37 -78l-305 -309z" />
<glyph unicode="&#x446;" horiz-adv-x="1261" d="M119 219l157 893h318l-137 -776l32 -39h224l110 106l125 709h318l-138 -776l105 -150l-88 -493h-318l72 405l-20 31l-136 -129h-440z" />
<glyph unicode="&#x447;" horiz-adv-x="1146" d="M154 528l102 584h317l-81 -465l32 -39h256q3 1 14.5 3.5t20.5 4.5l86 496h318l-195 -1112h-317l59 338q-64 -18 -100 -27h-334z" />
<glyph unicode="&#x448;" horiz-adv-x="1779" d="M119 219l157 893h318l-137 -776l32 -39h201l66 59l133 756h317l-133 -756l45 -59h148l110 106l125 709h318l-136 -766l19 -319l-262 -58l-8 160l-136 -129h-348l-80 104l-112 -104h-453z" />
<glyph unicode="&#x449;" horiz-adv-x="1814" d="M119 219l157 893h318l-137 -776l32 -39h201l66 59l133 756h317l-133 -756l45 -59h148l110 106l125 709h318l-138 -776l105 -150l-88 -493h-318l72 405l-20 31l-136 -129h-348l-80 104l-112 -104h-453z" />
<glyph unicode="&#x44a;" horiz-adv-x="1327" d="M143 815l52 297h593l-61 -348h453l180 -219l-57 -326l-256 -219h-586l-154 184l113 631h-277zM645 295l33 -39h276l45 39l31 174l-33 39h-315z" />
<glyph unicode="&#x44b;" horiz-adv-x="1634" d="M113 184l163 928h318l-62 -348h453l180 -219l-57 -326l-256 -219h-586zM451 295l32 -39h277l45 39l31 174l-33 39h-316zM1194 0l195 1112h317l-195 -1112h-317z" />
<glyph unicode="&#x44c;" horiz-adv-x="1132" d="M113 184l163 928h318l-62 -348h453l180 -219l-57 -326l-256 -219h-586zM451 295l32 -39h277l45 39l31 174l-33 39h-316z" />
<glyph unicode="&#x44d;" horiz-adv-x="1128" d="M16 94l129 264l242 -82h309l47 39l19 109h-332l45 256h332l20 117l-32 39h-275l-45 -39l-22 -131h-318l39 227l260 219h545l182 -219l-119 -674l-258 -219h-483z" />
<glyph unicode="&#x44e;" horiz-adv-x="1601" d="M82 0l194 1112h318l-72 -412h123l33 191l258 221h518l180 -221l-116 -670l-258 -221h-519l-180 221l31 182h-123l-70 -403h-317zM897 336l33 -39h244l45 39l77 440l-30 39h-244l-47 -39z" />
<glyph unicode="&#x44f;" horiz-adv-x="1171" d="M74 197l166 77l104 93l80 51l-2 6l-78 -35h-47l-139 166l69 391l197 166h819l-194 -1112h-318l68 389h-37l-369 -330l-235 -110zM498 678l24 -33h322l37 211h-322l-35 -31z" />
<glyph unicode="&#x451;" horiz-adv-x="1165" d="M119 219l119 674l260 219h544l183 -219l-49 -285l-236 -198h-469l-16 -95l30 -39h306l270 82l39 -264l-318 -94h-479zM424 1305l27 153l100 86h145l82 -86l-26 -153l-103 -86h-155zM516 666h324l32 28l23 123l-33 39h-274l-45 -39zM858 1305l27 153l100 86h145l82 -86 l-26 -153l-103 -86h-155z" />
<glyph unicode="&#x452;" horiz-adv-x="1253" d="M145 942l43 246h170l-30 201l317 98l45 -299h277l-43 -246h-277l-26 -151l114 75h346l183 -219l-80 -454l-199 -222l-348 -114l-49 284l233 78l62 68l43 243l-31 39h-211l-117 -75l-86 -494h-317l166 942h-185z" />
<glyph unicode="&#x453;" horiz-adv-x="1073" d="M74 219l43 244l119 151l557 129l18 23l6 29l-35 41h-252l-280 -88l-41 266l313 98h449l180 -219l-41 -240l-119 -151l-555 -129l-22 -25l-4 -31l32 -41h252l283 89l41 -267l-313 -98h-449zM563 1225l266 348h297l-307 -348h-256z" />
<glyph unicode="&#x454;" horiz-adv-x="1134" d="M119 219l119 674l260 219h544l183 -219l-39 -227h-318l23 131l-33 39h-274l-45 -39l-21 -117h332l-45 -256h-332l-18 -109l30 -39h310l270 82l39 -264l-318 -94h-483z" />
<glyph unicode="&#x455;" horiz-adv-x="1075" d="M37 98l135 267l250 -89h262l49 41l4 31l-10 25l-510 129l-65 151l41 240l258 219h460l281 -98l-135 -266l-252 88h-264l-47 -41l-7 -29l15 -23l508 -129l65 -151l-43 -244l-256 -219h-459z" />
<glyph unicode="&#x456;" horiz-adv-x="567" d="M121 0l137 780l-37 244l316 98l45 -299l-144 -823h-317zM342 1284l27 154l102 86h145l80 -86l-26 -154l-101 -86h-155z" />
<glyph unicode="&#x457;" horiz-adv-x="567" d="M121 0l137 780l-37 244l316 98l45 -299l-144 -823h-317zM125 1284l27 154l102 86h145l80 -86l-26 -154l-101 -86h-155zM559 1284l27 154l102 86h146l79 -86l-26 -154l-101 -86h-155z" />
<glyph unicode="&#x458;" horiz-adv-x="624" d="M-160 -104l287 96l61 67l127 721l-36 244l315 98l45 -299l-150 -858l-200 -221l-400 -133zM399 1284l27 154l102 86h146l80 -86l-27 -154l-100 -86h-156z" />
<glyph unicode="&#x459;" horiz-adv-x="1740" d="M20 242l164 55l80 70l223 745h787l-64 -369h381l181 -219l-56 -305l-256 -219h-514l-153 184l112 631h-182l-180 -596l-187 -164l-284 -96zM1130 295l33 -39h205l45 39l27 154l-33 38h-244z" />
<glyph unicode="&#x45a;" horiz-adv-x="1718" d="M121 0l141 811l-37 244l318 98l45 -299l-21 -121h285l66 379h317l-70 -399h398l180 -219l-49 -275l-256 -219h-531l-153 184l45 252h-285l-76 -436h-317zM1092 295l32 -39h222l45 39l20 123l-31 39h-260z" />
<glyph unicode="&#x45b;" horiz-adv-x="1253" d="M145 942l43 246h170l-30 201l317 98l45 -299h277l-43 -246h-277l-26 -151l114 75h346l183 -219l-113 -647h-317l92 530l-31 39h-211l-117 -75l-86 -494h-317l166 942h-185z" />
<glyph unicode="&#x45c;" horiz-adv-x="1101" d="M82 0l194 1112h318l-76 -432h23l325 360l258 123l93 -272l-175 -84l-231 -256l150 -252l139 -78l-189 -272l-194 110l-219 365h-25l-74 -424h-317zM623 1151l266 348h297l-307 -348h-256z" />
<glyph unicode="&#x45e;" horiz-adv-x="1124" d="M88 -344l51 297h252l41 35l23 45h-52l-243 999l309 121l156 -643l2 -141h8l51 141l330 643l272 -96l-629 -1237l-192 -164h-379zM391 1384l37 215h277l-17 -92l27 -30h186l35 30l16 92h277l-37 -215l-184 -153h-490z" />
<glyph unicode="&#x45f;" horiz-adv-x="1191" d="M82 0l194 1112h318l-148 -836h353l147 836h318l-195 -1112h-336l-55 -307h-318l56 307h-334z" />
<glyph unicode="&#x490;" horiz-adv-x="1130" d="M102 0l256 1454h670l33 184h317l-86 -481h-669l-203 -1157h-318z" />
<glyph unicode="&#x491;" horiz-adv-x="962" d="M82 0l194 1112h512l29 164h318l-80 -463h-510l-144 -813h-319z" />
<glyph unicode="&#x2000;" horiz-adv-x="997" />
<glyph unicode="&#x2001;" horiz-adv-x="1995" />
<glyph unicode="&#x2002;" horiz-adv-x="997" />
<glyph unicode="&#x2003;" horiz-adv-x="1995" />
<glyph unicode="&#x2004;" horiz-adv-x="665" />
<glyph unicode="&#x2005;" horiz-adv-x="498" />
<glyph unicode="&#x2006;" horiz-adv-x="332" />
<glyph unicode="&#x2007;" horiz-adv-x="332" />
<glyph unicode="&#x2008;" horiz-adv-x="249" />
<glyph unicode="&#x2009;" horiz-adv-x="399" />
<glyph unicode="&#x200a;" horiz-adv-x="110" />
<glyph unicode="&#x2010;" d="M119 567l49 277h942l-49 -277h-942z" />
<glyph unicode="&#x2011;" d="M119 567l49 277h942l-49 -277h-942z" />
<glyph unicode="&#x2012;" d="M119 567l49 277h942l-49 -277h-942z" />
<glyph unicode="&#x2013;" horiz-adv-x="1200" d="M106 496l46 258h1118l-45 -258h-1119z" />
<glyph unicode="&#x2014;" horiz-adv-x="1581" d="M106 496l46 258h1499l-45 -258h-1500z" />
<glyph unicode="&#x2018;" horiz-adv-x="450" d="M131 860l320 594h215l-238 -594h-297z" />
<glyph unicode="&#x2019;" horiz-adv-x="450" d="M152 860l237 594h297l-319 -594h-215z" />
<glyph unicode="&#x201a;" horiz-adv-x="450" d="M-63 -369l235 594h297l-319 -594h-213z" />
<glyph unicode="&#x201c;" horiz-adv-x="860" d="M131 860l320 594h215l-238 -594h-297zM541 860l319 594h215l-237 -594h-297z" />
<glyph unicode="&#x201d;" horiz-adv-x="860" d="M152 860l237 594h297l-319 -594h-215zM561 860l238 594h297l-320 -594h-215z" />
<glyph unicode="&#x201e;" horiz-adv-x="860" d="M-63 -369l235 594h297l-319 -594h-213zM344 -369l238 594h297l-320 -594h-215z" />
<glyph unicode="&#x2022;" horiz-adv-x="860" d="M164 588l49 278l233 199h299l164 -199l-49 -278l-233 -199h-299z" />
<glyph unicode="&#x2026;" horiz-adv-x="1413" d="M49 55l31 174l102 86h166l80 -86l-31 -174l-100 -86h-176zM520 55l31 174l102 86h166l80 -86l-31 -174l-100 -86h-176zM991 55l31 174l102 86h166l80 -86l-31 -174l-100 -86h-176z" />
<glyph unicode="&#x202f;" horiz-adv-x="399" />
<glyph unicode="&#x2039;" horiz-adv-x="796" d="M100 457l29 164l619 477l161 -226l-434 -333l316 -334l-240 -225z" />
<glyph unicode="&#x203a;" horiz-adv-x="796" d="M35 205l434 334l-315 333l239 226l451 -477l-29 -164l-618 -477z" />
<glyph unicode="&#x205f;" horiz-adv-x="498" />
<glyph unicode="&#x20ac;" horiz-adv-x="1267" d="M68 508l30 174h103l16 90h-82l31 174h82l43 246l309 262h592l215 -262l-47 -270h-318l27 153l-68 82h-317l-96 -82l-23 -129h410l-31 -174h-409l-17 -90h389l-30 -174h-390l-22 -129l67 -82h332l232 197l178 -218l-324 -276h-606l-217 262l43 246h-102z" />
<glyph unicode="&#x2122;" horiz-adv-x="1771" d="M186 1178l50 276h706l-49 -276h-195l-77 -441h-318l78 441h-195zM897 737l127 717h297l78 -260l12 -78h8l37 78l172 260h297l-127 -717h-276l39 226l43 116h-9l-153 -233h-152l-71 233h-9l2 -116l-38 -226h-277z" />
<glyph unicode="&#x25fc;" horiz-adv-x="1167" d="M0 0v1167h1167v-1167h-1167z" />
</font>
</defs>
</svg>
